<?xml version="1.0" encoding="UTF-8"?><svg id="Layer_1" xmlns="http://www.w3.org/2000/svg" xmlns:xlink="http://www.w3.org/1999/xlink" viewBox="0 0 547.25 547.25"><defs><style>.cls-1{fill:#1d1528;}.cls-2{fill:url(#New_Gradient_Swatch_1);}.cls-3{fill:url(#New_Gradient_Swatch_1-2);}</style><linearGradient id="New_Gradient_Swatch_1" x1="109.49" y1="51.64" x2="492.23" y2="434.38" gradientUnits="userSpaceOnUse"><stop offset="0" stop-color="#abffc6"/><stop offset=".14" stop-color="#9bf9ca"/><stop offset=".41" stop-color="#72e9d7"/><stop offset=".77" stop-color="#31d0eb"/><stop offset=".99" stop-color="#07c0f9"/></linearGradient><linearGradient id="New_Gradient_Swatch_1-2" x1="80.14" y1="80.14" x2="467.1" y2="467.1" xlink:href="#New_Gradient_Swatch_1"/></defs><circle class="cls-1" cx="273.62" cy="273.62" r="261.89"/><path class="cls-2" d="m286.82,204.93c-1-5.95-5.26-9.34-11.1-8.62-11.46,1.41-19.23,8.34-24.94,17.72-.93,1.53-.27,5.01.92,6.69,4.75,6.67,13.53,8.97,21.77,6.35,6.3-2,14.17-9.46,13.65-17.73-.09-1.47-.05-2.97-.3-4.41Z"/><path class="cls-3" d="m467.1,80.14C415.42,28.46,346.71,0,273.62,0S131.82,28.46,80.14,80.14C28.46,131.82,0,200.54,0,273.62s28.46,141.8,80.14,193.48c51.68,51.68,120.39,80.14,193.48,80.14s141.8-28.46,193.48-80.14c51.68-51.68,80.14-120.39,80.14-193.48s-28.46-141.8-80.14-193.48Zm44.83,254.9c-2.63-4.73-4.86-9.76-6.63-14.88-5.73-16.56-10.74-33.38-16.91-49.76-2.54-6.75-7.28-12.67-11.1-18.92-2.89-4.72-5.91-9.35-9.25-14.6,3.48-1.55,6.08-2.87,8.79-3.88,7.54-2.79,7.96-4.34,2.61-10.54-.68-.78-1.46-1.47-2.14-2.25-5.56-6.28-13.22-9.22-20.38-13.04-4.34-2.32-8.4-5.38-12.08-8.68-3.06-2.74-2.33-4.96,1.47-6.7,1.52-.69,3.11-1.22,5.32-2.07-2.48-.84-4.3-1.42-6.09-2.06-4.16-1.49-8.48-2.66-12.41-4.61-5.67-2.82-6.02-5.95-1.83-10.63,1.74-1.94,3.42-3.91,5.6-6.41-2.74-1.33-4.71-2.86-6.88-3.26-9.11-1.65-18.3-2.82-27.41-4.45-7.36-1.31-14.87-2.38-21.92-4.75-7.24-2.43-7.61-4.95-3.59-11.27.24-.37.51-.73.71-1.12,1.41-2.76,1.99-4.61-2.4-5.31-9.99-1.59-19.65.33-29.46,1.54-7.99.99-16.12,1.58-24.16,1.34-6.75-.2-7.89-2.97-5.09-8.98.95-2.04,1.65-4.19,3.04-7.76-6.58.85-11.93.91-16.91,2.3-15.86,4.43-31.6,9.27-47.34,14.1-18.16,5.57-36.25,11.35-54.41,16.91-3.34,1.02-7.11,2.6-10.25,1.92-12.24-2.65-24.48-3.41-36.94-2.51-15.47,1.12-28.16,11.07-32.17,25.45-2.2,7.92-4.6,15.79-7.24,23.58-.63,1.87-2.33,3.56-3.9,4.9-5.91,5.02-12.21,9.6-17.93,14.83-6.49,5.94-12.44,12.48-18.77,18.62-6.41,6.21-10.93,13.12-9.7,22.56.25,1.91.46,3.82.61,5.73.91,11.44,4.69,16.95,15.91,19.24,13.67,2.8,27.56,5.52,41.44,6.05,21.24.82,42.64.76,63.82-.83,20.04-1.5,40.07-4.57,59.79-8.57,20.99-4.25,41.59-10.43,62.37-15.7,14.46-3.67,29.06-6.55,44.09-5.72,10.5.58,18.59,6.23,26.05,13.28-2.26-.26-4.52-.64-6.79-.78-10.6-.65-20.44,2.94-29.92,6.68-15.19,5.99-29.92,13.14-44.81,19.9-24.66,11.2-50.12,19.87-76.94,24.07-16.3,2.55-32.6,5.47-49.02,6.73-14.41,1.1-29,.47-43.48-.07-11.34-.42-22.7-1.58-32.85-7.73-.57-.35-3.03,1.38-3.76,2.64-.63,1.08-.31,2.94.04,4.34,3.14,12.61,9.82,22.49,21.56,28.8,12.06,6.49,25.05,8.74,38.43,8.64,13.43-.1,26.87-.92,40.29-1.68,13.71-.78,27.4-1.87,41.1-2.82,16.21-1.12,32.41-2.3,48.63-3.35,19.15-1.24,38.4-1.61,57.45-3.76,22.43-2.53,42.49-11.08,57.76-28.56,12.46-14.26,17.01-30.65,12.76-49.32-3.57-15.7-12.79-27.67-24.66-37.92-3.78-3.27-7.81-6.24-11.72-9.35,11.05,1.02,21.68,2.62,31.16,8.02,23.26,13.25,35.07,42.86,27.69,70.08-7.42,27.36-25.27,46.25-49.94,58.98-21.29,10.98-44.47,14.22-68.09,14.89-16.26.46-32.53.58-48.79.88-.35,0-.69.33-1.44.72,1.65,1.25,2.91,2.51,4.42,3.29,12.78,6.57,24.51,14.61,35.3,24.13,15.39,13.56,28.55,28.71,35.55,48.36,1.52,4.25,2.49,8.7,3.63,13.04.49.79.84,1.68,1.03,2.69,1.49,7.91,6.67,21.8,10.81,30.53-25.13,8.5-52.06,13.11-80.06,13.11-137.91,0-249.7-111.8-249.7-249.7S135.72,23.92,273.62,23.92s249.7,111.8,249.7,249.7c0,23.34-3.21,45.93-9.2,67.36-.61-2.36-1.41-4.54-2.18-5.94Zm-197.98-132.43c1.05,10.29-2.1,19.62-9,27.72-10.89,12.78-25.48,17.8-41.27,17.99-14.21.17-28.48-2.06-42.68-3.62-8.92-.98-17.93-2.01-26.57-4.27-6.14-1.61-11.75-5.27-17.54-8.14-.95-.47-1.58-1.59-2.55-2.62,22.11.23,39.62-9.41,55.44-23.02,10.29-8.85,20.37-17.99,32.74-23.97,17.53-8.47,35.77-12.53,55.14-7.78,10.08,2.47,17.7,9.31,26.01,14.83-8.72,1.98-16.86,3.73-24.95,5.71-3.59.88-5.24,2.51-4.76,7.17Zm-165.82,54.62c-.98,3.03-3.93,4.18-7.38,3.43-4.82.1-9.55.62-13.21,4.6-2.15,2.33-4.31,1.84-6.35-.5-3.45-3.96-3.58-9.05-.26-13.21,4.62-5.79,10.91-7.79,17.97-7.69,3.93.06,7.39,1.85,8.8,5.59.89,2.35,1.19,5.45.44,7.78Z"/></svg>